<?xml version="1.0" standalone="no"?>
<!DOCTYPE svg PUBLIC "-//W3C//DTD SVG 20010904//EN"
 "http://www.w3.org/TR/2001/REC-SVG-20010904/DTD/svg10.dtd">
<svg version="1.0" xmlns="http://www.w3.org/2000/svg"
 width="500pt" height="500pt" viewBox="0 0 500.000000 500.000000"
 preserveAspectRatio="xMidYMid meet">

<g transform="translate(0.000000,500.000000) scale(0.100000,-0.100000)"
fill="#5900FF" stroke="none">
<path d="M1700 3048 c-34 -36 -62 -87 -55 -98 4 -6 1 -9 -6 -8 -20 4 -73 -102
-125 -250 -26 -73 -55 -143 -64 -155 -9 -12 -19 -29 -22 -37 -10 -26 -87 -75
-99 -63 -13 13 2 67 34 126 18 33 19 39 7 48 -8 5 -26 8 -40 7 -21 -3 -28 -13
-47 -70 -22 -67 -63 -137 -101 -171 -25 -23 -36 -8 -28 36 3 18 8 46 11 63 2
17 14 51 24 75 30 66 -1 102 -56 64 -20 -14 -22 -13 -42 20 -25 43 -51 45 -98
9 -64 -49 -112 -186 -89 -255 10 -29 16 -34 40 -32 34 3 75 39 118 106 17 26
32 46 34 44 2 -2 -1 -29 -7 -60 -10 -48 -9 -60 7 -94 33 -68 77 -54 146 45
l30 44 27 -26 c40 -39 63 -33 114 26 l45 53 -14 -60 c-16 -70 -18 -143 -4
-179 13 -35 54 -60 85 -52 32 8 105 84 157 165 l42 64 8 -30 c23 -88 100 -54
174 75 24 41 35 41 23 0 -30 -105 14 -194 79 -159 37 20 164 222 149 238 -3 2
-33 -37 -67 -87 -35 -50 -72 -96 -83 -102 -19 -10 -20 -8 -14 56 3 36 16 89
28 117 17 38 20 56 12 68 -14 22 -47 25 -63 6 -18 -22 -26 -19 -40 15 -29 71
-108 39 -167 -68 -97 -177 -196 -312 -229 -312 -24 0 -33 42 -24 116 11 99 36
176 74 226 66 87 169 252 192 309 13 32 24 73 24 92 0 69 -57 101 -100 55z
m60 -51 c0 -37 -65 -178 -130 -281 -23 -36 -44 -66 -46 -66 -7 0 78 234 104
285 51 102 72 120 72 62z m-678 -401 c7 -31 4 -44 -14 -69 -41 -61 -89 -117
-100 -117 -25 0 30 169 69 212 23 26 36 18 45 -26z m828 18 c6 -14 10 -35 10
-46 0 -22 -96 -158 -111 -158 -27 0 10 136 55 205 21 32 34 32 46 -1z"/>
<path d="M2767 2950 c-82 -89 -177 -222 -249 -352 -32 -56 -58 -100 -58 -97 0
23 87 255 129 343 28 60 51 115 51 122 0 17 -34 36 -52 29 -21 -9 -56 -67 -94
-156 -19 -46 -41 -97 -48 -114 -20 -42 -83 -277 -97 -358 -14 -83 -7 -115 27
-123 14 -4 27 -4 29 -2 3 3 14 40 25 83 35 138 188 407 320 563 73 87 96 93
86 25 -18 -135 -162 -485 -226 -550 -21 -22 -27 -33 -18 -37 7 -3 0 -3 -17 1
-37 7 -53 19 -77 58 -18 28 -19 28 -13 5 17 -64 73 -106 126 -95 87 19 178
162 260 408 24 71 29 104 29 180 0 99 -14 137 -50 137 -10 0 -47 -31 -83 -70z
m-263 -166 c-20 -43 -43 -95 -50 -114 -13 -32 -14 -33 -8 -5 6 33 85 207 91
202 2 -2 -13 -39 -33 -83z m-63 -197 c-10 -9 -11 -8 -5 6 3 10 9 15 12 12 3
-3 0 -11 -7 -18z"/>
<path d="M780 2987 c-13 -7 -35 -28 -47 -46 -26 -38 -32 -66 -8 -35 14 18 15
17 4 -8 -7 -15 -16 -25 -22 -21 -6 3 -7 1 -3 -6 10 -16 -3 -53 -16 -45 -7 4
-8 2 -4 -5 4 -6 -1 -31 -12 -54 -11 -23 -30 -90 -41 -149 -12 -59 -26 -119
-31 -133 -6 -15 -10 -36 -10 -49 0 -16 -10 -27 -35 -39 -44 -21 -75 -78 -55
-102 19 -23 43 -18 76 16 39 41 103 72 192 94 40 9 83 26 95 36 22 18 22 18
-33 19 -30 0 -84 -7 -119 -15 -35 -9 -65 -14 -67 -13 -3 3 52 194 93 323 44
138 98 224 124 198 16 -16 3 -72 -31 -137 -17 -31 -30 -58 -30 -61 0 -3 10 -5
23 -5 34 0 67 28 88 74 35 77 18 135 -47 162 -41 17 -52 17 -84 1z"/>
<path d="M1379 2813 c-3 -41 -10 -66 -23 -91 -28 -53 -14 -86 17 -42 8 11 17
17 21 12 4 -4 6 -2 5 3 -5 17 11 53 26 59 18 7 20 37 3 54 -13 13 -48 16 -49
5z"/>
<path d="M3595 2678 c-20 -24 -57 -83 -82 -133 -45 -90 -45 -90 -39 -42 3 26
13 59 22 72 14 21 15 31 6 50 -7 14 -16 25 -21 25 -9 0 -34 -47 -54 -104 -12
-32 -97 -116 -119 -116 -6 0 -7 10 -3 28 4 15 9 38 11 51 1 13 19 48 39 77 39
56 43 89 12 108 -16 9 -25 4 -62 -36 -23 -26 -59 -72 -79 -103 -21 -30 -39
-55 -42 -55 -3 0 -3 19 1 43 8 45 28 91 52 119 21 23 9 48 -22 48 -14 0 -25
-1 -25 -2 0 -2 -16 -47 -35 -102 -40 -110 -101 -200 -166 -243 -54 -36 -65
-24 -53 59 8 59 11 64 44 80 20 9 55 37 78 62 53 58 57 98 11 121 -64 34 -134
-21 -179 -141 -21 -58 -26 -89 -10 -64 15 23 12 -17 -5 -64 -15 -42 -13 -48
18 -83 22 -25 65 -30 97 -13 11 6 45 42 76 81 52 65 57 69 73 55 27 -25 36
-20 75 42 37 58 86 122 86 111 0 -3 -8 -21 -17 -40 -11 -21 -18 -57 -18 -93 0
-56 2 -61 32 -78 l32 -19 41 37 c22 20 42 35 43 33 1 -2 7 -13 13 -24 25 -44
41 -29 103 93 55 108 94 163 106 151 2 -3 -7 -29 -21 -58 -13 -30 -22 -56 -19
-59 3 -3 5 1 5 8 0 7 3 11 6 7 3 -3 -2 -21 -11 -40 -39 -82 6 -117 51 -40 15
26 45 71 67 98 42 53 43 42 4 -45 -25 -57 -26 -153 -1 -181 33 -37 75 -22 119
41 l29 42 11 -37 c5 -21 17 -42 26 -48 23 -15 68 11 104 59 16 22 40 54 52 70
l23 29 -8 -30 c-14 -58 -8 -132 12 -154 36 -40 80 -18 135 67 25 40 36 48 54
45 17 -3 26 2 34 19 13 29 104 150 109 145 2 -2 -6 -22 -17 -44 -29 -60 -24
-139 12 -166 21 -15 31 -17 47 -8 26 14 132 143 132 160 0 7 -35 -17 -77 -53
-42 -36 -81 -66 -86 -66 -5 0 -7 14 -3 33 4 17 9 42 10 54 2 13 20 44 40 70
20 25 36 54 36 64 0 18 -25 49 -39 49 -14 0 -62 -53 -109 -120 -63 -90 -65
-92 -57 -41 8 50 21 83 49 124 22 32 12 51 -24 45 -18 -2 -28 -17 -46 -63 -13
-33 -28 -85 -35 -116 -8 -41 -23 -72 -55 -113 -25 -32 -50 -54 -56 -50 -14 9
-3 94 24 170 11 34 18 69 15 78 -8 20 -36 20 -65 0 -13 -9 -24 -14 -25 -13 -1
2 -9 18 -17 34 -32 63 -107 33 -159 -64 -38 -71 -127 -181 -147 -181 -21 0
-17 32 15 113 40 100 47 140 27 160 -9 8 -25 13 -36 10 -24 -6 -84 -73 -110
-123 -27 -50 -24 -22 5 56 23 62 24 69 10 91 -22 33 -38 29 -80 -19z m-535
-39 c0 -23 -10 -42 -39 -70 -50 -50 -65 -50 -45 -1 40 96 84 134 84 71z m996
-26 c3 -16 7 -32 9 -38 1 -5 -2 -19 -8 -30 -19 -37 -98 -135 -109 -135 -28 0
27 173 67 213 23 24 34 21 41 -10z"/>
<path d="M2861 2424 c0 -11 3 -14 6 -6 3 7 2 16 -1 19 -3 4 -6 -2 -5 -13z"/>
</g>
</svg>
